<?xml version="1.0" encoding="utf-8"?>
<!-- Generator: Adobe Illustrator 22.0.1, SVG Export Plug-In . SVG Version: 6.00 Build 0)  -->
<svg version="1.1" id="Layer_1" xmlns="http://www.w3.org/2000/svg" xmlns:xlink="http://www.w3.org/1999/xlink" x="0px" y="0px"
	 viewBox="0 0 1840.8 1789" style="enable-background:new 0 0 1840.8 1789;" xml:space="preserve">
<style type="text/css">
	.st0{fill:#231F20;}
	.st1{fill:#0097A9;}
</style>
<path class="st0" d="M1111.2,668.8c-8.6-8.6-19.1-13.2-30.3-13.2c-11.2,0-22,4.7-30.5,13.2L854.2,865.1
	c-8.4,8.4-12.9,19.4-12.7,31.1c-0.2,12,4.3,23.1,12.7,31.5l196.2,196.2c8.5,8.5,19.4,13.2,30.5,13.2c11.2,0,21.6-4.6,30.3-13.2
	c8.8-8.8,13.4-19.5,13.2-30.9c-0.2-11-4.9-21.6-13.2-29.9L944.5,896.4l166.7-166.7C1128.8,712,1128.8,686.5,1111.2,668.8"/>
<path class="st0" d="M816.4,698.8c0-11.6-4.3-22.5-12.2-30.5c-8-8.1-18.9-12.5-30.8-12.5c-24.5,0-43,18.5-43,43v394.6
	c0,24.9,18.1,43,43,43c12.5,0,23.2-4.3,31.2-12.5c7.6-7.9,11.8-18.7,11.8-30.5V698.8z"/>
<path class="st1" d="M1575.2,863.3c-26,0-47.2,21.2-47.2,47.2c0,26,21.2,47.2,47.2,47.2c26,0,47.2-21.2,47.2-47.2
	C1622.4,884.5,1601.3,863.3,1575.2,863.3"/>
<path class="st1" d="M1506.7,1147.8c-7.4-5.5-16.2-8.4-25.4-8.4c-13.6,0-26.5,6.5-34.5,17.4c-53.7,72.8-129.6,133.9-219.5,176.6
	c-93.4,44.4-200.2,67.9-309.1,67.9c-166.1,0-322-53.4-438.8-150.5c-56.1-46.5-100-100.5-130.5-160.5
	c-31.3-61.4-47.1-126.6-47.2-193.6c0-67.1,15.9-132.2,47.2-193.7c46-90.3,122.7-167.4,221.7-223c102.7-57.6,222.9-88,347.8-88
	c108.9,0,215.9,23.6,309.5,68.2c90,42.9,166,104.2,219.6,177.3c8,11,21,17.5,34.6,17.5c9.2,0,17.9-2.9,25.3-8.3
	c19.1-14,23.2-40.9,9.2-59.9c-62-84.5-149.1-155-251.8-204c-105.1-50.1-224.8-76.5-346.4-76.5c-186.1,0-361.4,60.5-493.7,170.2
	c-65.1,54-116.3,117.1-152.2,187.6c-37.5,73.6-56.5,151.8-56.5,232.6c0,80.8,19,159,56.5,232.6c53.8,105.5,142.4,195,256.2,258.8
	c115.4,64.7,250.2,99,389.7,99c121.2,0,240.7-26.3,345.6-76.2c102.5-48.7,189.5-119,251.6-203.1
	C1529.8,1188.8,1525.7,1161.9,1506.7,1147.8"/>
</svg>
